<mxfile host="Electron" modified="2024-07-02T06:52:01.371Z" agent="Mozilla/5.0 (Macintosh; Intel Mac OS X 10_15_7) AppleWebKit/537.36 (KHTML, like Gecko) draw.io/24.1.0 Chrome/120.0.6099.109 Electron/28.1.0 Safari/537.36" etag="LMKgH7lNPKpZmZ4Cjrdv" version="24.1.0" type="device">
  <diagram name="Страница — 1" id="WdVj7licmz7ZZ9O4E1m2">
    <mxGraphModel dx="1114" dy="884" grid="1" gridSize="10" guides="1" tooltips="1" connect="1" arrows="1" fold="1" page="1" pageScale="1" pageWidth="827" pageHeight="1169" math="0" shadow="0">
      <root>
        <mxCell id="0" />
        <mxCell id="1" parent="0" />
        <mxCell id="9j4zxoHLO9v20oG0MXVk-1" value="" style="rounded=0;whiteSpace=wrap;html=1;" parent="1" vertex="1">
          <mxGeometry x="150" y="140" width="730" height="1000" as="geometry" />
        </mxCell>
        <mxCell id="9j4zxoHLO9v20oG0MXVk-2" value="Работник" style="shape=umlActor;verticalLabelPosition=bottom;verticalAlign=top;html=1;outlineConnect=0;" parent="1" vertex="1">
          <mxGeometry x="70" y="210" width="30" height="60" as="geometry" />
        </mxCell>
        <mxCell id="9j4zxoHLO9v20oG0MXVk-28" style="edgeStyle=orthogonalEdgeStyle;rounded=0;orthogonalLoop=1;jettySize=auto;html=1;entryX=0;entryY=0.5;entryDx=0;entryDy=0;" parent="1" source="9j4zxoHLO9v20oG0MXVk-4" target="9j4zxoHLO9v20oG0MXVk-23" edge="1">
          <mxGeometry relative="1" as="geometry" />
        </mxCell>
        <mxCell id="9j4zxoHLO9v20oG0MXVk-4" value="Начальник смены&lt;div&gt;&lt;br&gt;&lt;/div&gt;" style="shape=umlActor;verticalLabelPosition=bottom;verticalAlign=top;html=1;outlineConnect=0;" parent="1" vertex="1">
          <mxGeometry x="70" y="710" width="30" height="60" as="geometry" />
        </mxCell>
        <mxCell id="9j4zxoHLO9v20oG0MXVk-10" value="Взаимодействие со сменой" style="ellipse;whiteSpace=wrap;html=1;" parent="1" vertex="1">
          <mxGeometry x="150" y="380" width="170" height="80" as="geometry" />
        </mxCell>
        <mxCell id="9j4zxoHLO9v20oG0MXVk-11" value="Уход со смены" style="ellipse;whiteSpace=wrap;html=1;" parent="1" vertex="1">
          <mxGeometry x="340" y="480" width="120" height="80" as="geometry" />
        </mxCell>
        <mxCell id="9j4zxoHLO9v20oG0MXVk-12" value="Выход на смену" style="ellipse;whiteSpace=wrap;html=1;" parent="1" vertex="1">
          <mxGeometry x="354" y="280" width="120" height="80" as="geometry" />
        </mxCell>
        <mxCell id="9j4zxoHLO9v20oG0MXVk-16" value="" style="endArrow=classic;html=1;rounded=0;entryX=0.469;entryY=-0.046;entryDx=0;entryDy=0;entryPerimeter=0;" parent="1" source="9j4zxoHLO9v20oG0MXVk-2" target="9j4zxoHLO9v20oG0MXVk-10" edge="1">
          <mxGeometry width="50" height="50" relative="1" as="geometry">
            <mxPoint x="190" y="260" as="sourcePoint" />
            <mxPoint x="242" y="286" as="targetPoint" />
          </mxGeometry>
        </mxCell>
        <mxCell id="9j4zxoHLO9v20oG0MXVk-20" value="Просмотр истории смен" style="ellipse;whiteSpace=wrap;html=1;" parent="1" vertex="1">
          <mxGeometry x="170" y="200" width="170" height="80" as="geometry" />
        </mxCell>
        <mxCell id="9j4zxoHLO9v20oG0MXVk-21" value="" style="endArrow=classic;html=1;rounded=0;entryX=0;entryY=0.5;entryDx=0;entryDy=0;exitX=1;exitY=1;exitDx=0;exitDy=0;exitPerimeter=0;" parent="1" source="9j4zxoHLO9v20oG0MXVk-2" target="9j4zxoHLO9v20oG0MXVk-20" edge="1">
          <mxGeometry width="50" height="50" relative="1" as="geometry">
            <mxPoint x="110" y="264" as="sourcePoint" />
            <mxPoint x="240" y="386" as="targetPoint" />
          </mxGeometry>
        </mxCell>
        <mxCell id="9j4zxoHLO9v20oG0MXVk-23" value="Взаимодействие со сменами" style="ellipse;whiteSpace=wrap;html=1;" parent="1" vertex="1">
          <mxGeometry x="160" y="700" width="170" height="80" as="geometry" />
        </mxCell>
        <mxCell id="9j4zxoHLO9v20oG0MXVk-24" value="Закрытие смены" style="ellipse;whiteSpace=wrap;html=1;" parent="1" vertex="1">
          <mxGeometry x="350" y="800" width="120" height="80" as="geometry" />
        </mxCell>
        <mxCell id="9j4zxoHLO9v20oG0MXVk-25" value="Открытие смены" style="ellipse;whiteSpace=wrap;html=1;" parent="1" vertex="1">
          <mxGeometry x="364" y="600" width="120" height="80" as="geometry" />
        </mxCell>
        <mxCell id="ew5UU8Gl2dNLd9upbHHu-2" value="" style="endArrow=none;dashed=1;html=1;rounded=0;entryX=0;entryY=1;entryDx=0;entryDy=0;" edge="1" parent="1" target="9j4zxoHLO9v20oG0MXVk-12">
          <mxGeometry width="50" height="50" relative="1" as="geometry">
            <mxPoint x="320" y="410" as="sourcePoint" />
            <mxPoint x="370" y="360" as="targetPoint" />
          </mxGeometry>
        </mxCell>
        <mxCell id="ew5UU8Gl2dNLd9upbHHu-3" value="" style="endArrow=none;dashed=1;html=1;rounded=0;entryX=0.5;entryY=0;entryDx=0;entryDy=0;" edge="1" parent="1" target="9j4zxoHLO9v20oG0MXVk-11">
          <mxGeometry width="50" height="50" relative="1" as="geometry">
            <mxPoint x="320" y="410" as="sourcePoint" />
            <mxPoint x="382" y="358" as="targetPoint" />
          </mxGeometry>
        </mxCell>
        <mxCell id="ew5UU8Gl2dNLd9upbHHu-4" value="" style="endArrow=none;dashed=1;html=1;rounded=0;entryX=0.5;entryY=0;entryDx=0;entryDy=0;" edge="1" parent="1">
          <mxGeometry width="50" height="50" relative="1" as="geometry">
            <mxPoint x="330" y="730" as="sourcePoint" />
            <mxPoint x="410" y="800" as="targetPoint" />
          </mxGeometry>
        </mxCell>
        <mxCell id="ew5UU8Gl2dNLd9upbHHu-5" value="" style="endArrow=none;dashed=1;html=1;rounded=0;entryX=0;entryY=1;entryDx=0;entryDy=0;" edge="1" parent="1" target="9j4zxoHLO9v20oG0MXVk-25">
          <mxGeometry width="50" height="50" relative="1" as="geometry">
            <mxPoint x="334" y="730" as="sourcePoint" />
            <mxPoint x="414" y="800" as="targetPoint" />
          </mxGeometry>
        </mxCell>
      </root>
    </mxGraphModel>
  </diagram>
</mxfile>
